<svg xmlns="http://www.w3.org/2000/svg" viewBox="0 0 274 100" role="img" aria-labelledby="title"><title id="title">HANK · 汉克</title><path d="M6 92V48a42 42 0 0 1 84 0v44Z" fill="#dfe3d9"/>
<circle cx="48" cy="51" r="34" fill="none" stroke="#9aafa3" stroke-width=".9"/>
<path d="M19 27a39 39 0 0 1 57 6" fill="none" stroke="#9aafa3" stroke-width=".9" stroke-dasharray="2 3"/>
<path d="M90.62790697674419 14.999999999999993 89.96194503171247 17.93023255813953Q88.71881606765328 17.974630021141643 86.85412262156449 18.329809725158558Q84.98942917547569 18.684989429175474 84.01268498942918 18.995771670190273Q82.28118393234672 19.572938689217757 81.52642706131078 20.816067653276953Q80.77167019027485 22.05919661733615 80.41649048625793 23.479915433403804L69.84989429175477 69.34249471458773Q69.76109936575054 69.69767441860465 69.71670190274843 70.1416490486258Q69.67230443974631 70.58562367864694 69.67230443974631 70.89640591966173Q69.67230443974631 71.82875264270614 70.07188160676533 72.53911205073996Q70.47145877378435 73.24947145877378 71.35940803382664 73.82663847780127Q72.02536997885835 74.2262156448203 73.77906976744185 74.62579281183932Q75.53276955602537 75.02536997885835 76.77589852008457 75.06976744186046L76.10993657505286 78.0H49.959830866807614L50.625792811839325 75.06976744186046Q51.73572938689218 74.98097251585624 53.778012684989434 74.80338266384777Q55.82029598308669 74.62579281183932 56.66384778012685 74.27061310782241Q58.21775898520085 73.69344608879493 59.06131078224102 72.58350951374207Q59.904862579281186 71.47357293868922 60.2600422832981 69.83086680761099L65.49894291754757 47.099365750528534H35.88583509513742L30.780126849894295 69.34249471458773Q30.691331923890065 69.69767441860465 30.646934460887948 70.09725158562367Q30.602536997885835 70.4968287526427 30.602536997885835 70.85200845665962Q30.602536997885835 71.73995771670191 31.02431289640592 72.53911205073996Q31.446088794926006 73.33826638477801 32.289640591966176 73.82663847780127Q32.95560253699789 74.2262156448203 34.7093023255814 74.62579281183932Q36.46300211416491 75.02536997885835 37.706131078224104 75.06976744186046L37.04016913319239 78.0H10.890063424947146L11.556025369978858 75.06976744186046Q12.665961945031713 74.98097251585624 14.708245243128964 74.80338266384777Q16.750528541226217 74.62579281183932 17.594080338266387 74.27061310782241Q19.147991543340382 73.69344608879493 19.991543340380552 72.58350951374207Q20.83509513742072 71.47357293868922 21.190274841437635 69.83086680761099L31.801268498942918 23.923890063424942Q31.890063424947147 23.56871035940803 31.934460887949264 23.191331923890058Q31.978858350951377 22.813953488372086 31.978858350951377 22.41437632135306Q31.978858350951377 21.43763213530655 31.60147991543341 20.727272727272723Q31.224101479915436 20.016913319238895 30.247357293868923 19.484143763213524Q29.181818181818183 18.90697674418604 27.583509513742072 18.463002114164897Q25.985200845665965 18.019027484143756 24.742071881606766 17.93023255813953L25.40803382663848 14.999999999999993H51.55813953488372L50.89217758985201 17.93023255813953Q49.649048625792815 17.974630021141643 47.78435517970402 18.329809725158558Q45.91966173361522 18.684989429175474 44.94291754756871 18.995771670190273Q43.21141649048626 19.572938689217757 42.45665961945032 20.816067653276953Q41.70190274841438 22.05919661733615 41.346723044397464 23.479915433403804L36.81818181818182 43.325581395348834H66.43128964059197L70.87103594080338 23.923890063424942Q70.95983086680761 23.56871035940803 71.00422832980972 23.191331923890058Q71.04862579281183 22.813953488372086 71.04862579281183 22.458773784355174Q71.04862579281183 21.482029598308664 70.67124735729386 20.74947145877378Q70.2938689217759 20.016913319238895 69.3171247357294 19.484143763213524Q68.25158562367865 18.90697674418604 66.65327695560254 18.463002114164897Q65.05496828752644 18.019027484143756 63.81183932346723 17.93023255813953L64.47780126849895 14.999999999999993Z" fill="#183238"/>
<circle cx="75" cy="77" r="6.5" fill="#c36141"/><path d="M147.33756166314305 66.0H134.05496828752644V64.39887244538407Q134.59619450317126 64.353770260747 135.62226920366456 64.26356589147287Q136.64834390415785 64.17336152219873 137.03171247357295 63.99295278365046Q137.70824524312897 63.722339675828046 138.02396053558846 63.16983791402396Q138.33967582804792 62.61733615221987 138.33967582804792 61.73784355179704V50.34954193093728H123.29809725158563V61.489781536293165Q123.29809725158563 62.27906976744186 123.55743481324876 62.82029598308668Q123.8167723749119 63.3615221987315 124.58350951374207 63.76744186046512Q124.96687808315716 63.97040169133192 125.94785059901339 64.17336152219873Q126.92882311486963 64.37632135306553 127.49260042283298 64.39887244538407V66.0H114.21000704721635V64.39887244538407Q114.75123326286116 64.353770260747 115.77730796335447 64.26356589147287Q116.80338266384778 64.17336152219873 117.18675123326287 63.99295278365046Q117.86328400281889 63.722339675828046 118.17899929527837 63.16983791402396Q118.49471458773785 62.61733615221987 118.49471458773785 61.73784355179704V38.64552501761804Q118.49471458773785 37.92389006342495 118.20155038759691 37.326286116983795Q117.90838618745596 36.72868217054263 117.18675123326287 36.39041578576462Q116.57787174066245 36.09725158562368 115.70965468639888 35.87174066243834Q114.84143763213531 35.646229739252995 114.21000704721635 35.60112755461593V34.0H127.49260042283298V35.60112755461593Q126.86116983791402 35.62367864693446 125.94785059901338 35.80408738548273Q125.03453136011275 35.98449612403101 124.58350951374207 36.14235377026074Q123.8167723749119 36.412966878083154 123.55743481324876 37.04439746300211Q123.29809725158563 37.67582804792107 123.29809725158563 38.4200140944327V48.34249471458774H138.33967582804792V38.64552501761804Q138.33967582804792 37.92389006342495 138.04651162790697 37.326286116983795Q137.75334742776604 36.72868217054263 137.03171247357295 36.39041578576462Q136.42283298097252 36.09725158562368 135.55461592670895 35.87174066243834Q134.68639887244538 35.646229739252995 134.05496828752644 35.60112755461593V34.0H147.33756166314305V35.60112755461593Q146.7061310782241 35.62367864693446 145.79281183932346 35.80408738548273Q144.87949260042285 35.98449612403101 144.42847075405214 36.14235377026074Q143.66173361522198 36.412966878083154 143.40239605355885 37.04439746300211Q143.14305849189572 37.67582804792107 143.14305849189572 38.4200140944327V61.489781536293165Q143.14305849189572 62.27906976744186 143.40239605355885 62.82029598308668Q143.66173361522198 63.3615221987315 144.42847075405214 63.76744186046512Q144.81183932346724 63.97040169133192 145.79281183932346 64.17336152219873Q146.7737843551797 64.37632135306553 147.33756166314305 64.39887244538407Z M184.68287526427062 66.0H171.3551797040169V64.39887244538407Q173.11416490486258 64.2861169837914 174.2755461592671 63.94785059901339Q175.4369274136716 63.609584214235376 175.4369274136716 63.11346018322762Q175.4369274136716 62.91050035236082 175.39182522903454 62.61733615221988Q175.34672304439746 62.32417195207893 175.25651867512335 62.09866102889359L172.5954897815363 54.927413671599716H161.3875968992248Q160.75616631430586 56.505990133897114 160.3615221987315 57.678646934460886Q159.96687808315716 58.851303735024665 159.65116279069767 59.84355179704017Q159.35799859055675 60.81324876673714 159.24524312896406 61.42212825933756Q159.13248766737138 62.031007751937985 159.13248766737138 62.41437632135307Q159.13248766737138 63.31642001409443 160.55320648343906 63.812544045102186Q161.9739252995067 64.30866807610994 163.75546159267088 64.39887244538407V66.0H151.71317829457365V64.39887244538407Q152.29950669485552 64.353770260747 153.17899929527835 64.13953488372093Q154.0584918957012 63.925299506694856 154.62226920366456 63.56448202959831Q155.52431289640592 62.95560253699789 156.02043692741367 62.29034531360113Q156.51656095842142 61.62508809020437 156.99013389711064 60.45243128964059Q159.4031007751938 54.43128964059196 162.3121916842847 46.92177589852008Q165.22128259337563 39.4122621564482 167.49894291754757 33.548978153629314H169.3030303030303L179.96969696969697 61.15151515151515Q180.307963354475 62.031007751937985 180.73643410852713 62.572233967582804Q181.16490486257928 63.11346018322762 181.93164200140944 63.63213530655391Q182.45031712473573 63.94785059901339 183.28470754052148 64.16208597603946Q184.11909795630726 64.37632135306553 184.68287526427062 64.39887244538407ZM171.78365045806908 52.920366455250175 166.9351656095842 40.517265680056376 162.1768851303735 52.920366455250175Z M221.6673713883016 35.60112755461593Q221.03594080338266 35.62367864693446 219.72797744890767 35.961945031712474Q218.4200140944327 36.300211416490484 217.85623678646934 36.66102889358703Q217.0443974630021 37.224806201550386 216.76250880902043 38.82593375616631Q216.48062015503876 40.427061310782236 216.48062015503876 42.88513037350246V66.31571529245947H214.5186751233263L195.12473572938688 40.1338971106413V56.641296687808314Q195.12473572938688 59.41508104298802 195.47427766032416 60.90345313601128Q195.82381959126144 62.39182522903453 196.54545454545453 63.02325581395349Q197.06412966878082 63.51937984496124 198.6878083157153 63.94785059901339Q200.31148696264975 64.37632135306553 200.83016208597604 64.39887244538407V66.0H187.70542635658916V64.39887244538407Q188.31430584918957 64.353770260747 189.75757575757575 63.959126145172654Q191.20084566596194 63.56448202959831 191.5616631430585 63.24876673713883Q192.3509513742072 62.61733615221987 192.64411557434812 61.32064834390415Q192.93727977448907 60.023960535588444 192.93727977448907 56.88935870331219V41.1261451726568Q192.93727977448907 40.088794926004226 192.57646229739254 39.051444679351654Q192.21564482029598 38.01409443269908 191.60676532769557 37.45031712473573Q190.79492600422833 36.706131078224104 189.40803382663847 36.176180408738546Q188.02114164904862 35.646229739252995 187.16420014094433 35.60112755461593V34.0H196.29739252995066L214.29316420014095 58.40028188865398V43.17829457364341Q214.29316420014095 40.381959126145176 213.93234672304442 38.88231148696265Q213.57152924594786 37.38266384778012 212.89499647639184 36.88653981677237Q212.26356589147287 36.45806906272023 210.83157152924593 36.05214940098661Q209.39957716701903 35.646229739252995 208.6553911205074 35.60112755461593V34.0H221.6673713883016Z M258.31360112755465 66.0H249.33826638477802Q246.74489076814658 61.98590556730092 243.57646229739254 58.028188865398164Q240.40803382663847 54.07047216349542 236.9351656095842 50.34954193093728H236.34883720930233V61.489781536293165Q236.34883720930233 62.233967582804794 236.630725863284 62.82029598308668Q236.91261451726567 63.406624383368566 237.6568005637773 63.76744186046512Q238.01761804087386 63.925299506694856 238.9985905567301 64.1508104298802Q239.97956307258633 64.37632135306553 240.6335447498238 64.39887244538407V66.0H227.3509513742072V64.39887244538407Q227.86962649753346 64.353770260747 228.86187455954897 64.26356589147287Q229.85412262156447 64.17336152219873 230.2600422832981 63.99295278365046Q230.93657505285412 63.699788583509516 231.24101479915433 63.12473572938689Q231.54545454545453 62.54968287526427 231.54545454545453 61.73784355179704V38.64552501761804Q231.54545454545453 37.878787878787875 231.2861169837914 37.315010570824526Q231.02677942212827 36.75123326286117 230.2600422832981 36.39041578576462Q229.65116279069767 36.09725158562368 228.81677237491192 35.87174066243834Q227.98238195912614 35.646229739252995 227.3509513742072 35.60112755461593V34.0H240.6335447498238V35.60112755461593Q240.00211416490487 35.62367864693446 239.05496828752644 35.80408738548273Q238.107822410148 35.98449612403101 237.6568005637773 36.14235377026074Q236.89006342494716 36.412966878083154 236.61945031712474 37.04439746300211Q236.34883720930233 37.67582804792107 236.34883720930233 38.4200140944327V49.47004933051444H236.799859055673Q238.8294573643411 47.756166314305844 240.79140239605357 45.89570119802678Q242.75334742776602 44.03523608174771 244.35447498238196 42.18604651162791Q246.13601127554617 40.1338971106413 246.95912614517266 38.904862579281186Q247.78224101479915 37.67582804792107 247.78224101479915 36.72868217054263Q247.78224101479915 36.39041578576462 247.36504580690627 36.176180408738546Q246.94785059901338 35.961945031712474 246.40662438336858 35.82663847780127Q245.7751937984496 35.69133192389006 245.27906976744185 35.657505285412256Q244.7829457364341 35.62367864693446 244.46723044397464 35.60112755461593V34.0H256.4644115574348V35.60112755461593Q256.3967582804792 35.60112755461593 256.17124735729385 35.623678646934465Q255.94573643410854 35.646229739252995 255.6525722339676 35.668780831571524Q255.3368569415081 35.69133192389006 255.02114164904862 35.758985200845665Q254.70542635658916 35.82663847780127 254.2093023255814 35.9168428470754Q253.4200140944327 36.09725158562368 252.57434813248767 36.491895701198025Q251.72868217054264 36.88653981677237 251.1874559548978 37.47286821705426Q248.86469344608878 40.11134601832276 246.33897110641294 42.93023255813954Q243.81324876673713 45.74911909795631 241.33262861169837 48.07188160676533Q244.76039464411556 51.950669485553206 247.00422832980973 54.74700493305144Q249.24806201550388 57.54334038054968 251.7737843551797 60.723044397463Q252.74348132487668 61.940803382663844 253.71317829457365 62.673713883016205Q254.68287526427062 63.406624383368566 255.38195912614518 63.76744186046512Q255.96828752642705 64.06060606060606 256.8477801268499 64.21846370683579Q257.72727272727275 64.37632135306553 258.31360112755465 64.39887244538407Z" fill="#fffdf7"/></svg>
